# xmcd
#
# Track frame offsets:
#	150
#	15703
#	30385
#	43122
#	55374
#	73458
#	86871
#	105792
#	118711
#	129714
#	163446
#
# Disc length: 2322 seconds
# Revision: 0
# Processed by: cddbd v1.5.2PL0 Copyright (c) Steve Scherf et al.
# Submitted via: dBpowerAMP V12.0
#
DISCID=9c09100b
DTITLE=Duffy - Endlessly
DYEAR=2010
DGENRE=Neo-Soul
TTITLE0=My Boy
TTITLE1=Too Hurt To Dance
TTITLE2=Keeping My Baby
TTITLE3=Well Well Well
TTITLE4=Don't Forsake Me
TTITLE5=Endlessly
TTITLE6=Breath Away
TTITLE7=Lovestruck
TTITLE8=Girl
TTITLE9=Hard For The Heart
TTITLE10=DATA
EXTD=
EXTT0=
EXTT1=
EXTT2=
EXTT3=
EXTT4=
EXTT5=
EXTT6=
EXTT7=
EXTT8=
EXTT9=
EXTT10=
PLAYORDER=
